HIERARCHY
ROOT hip
{
  OFFSET 0 0 0
  CHANNELS 6 Xposition Yposition Zposition Zrotation Yrotation Xrotation
  JOINT abdomen
  {
    OFFSET 0 20.6881 -0.73152
    CHANNELS 3 Zrotation Xrotation Yrotation
    JOINT chest
    {
      OFFSET 0 11.7043 -0.48768
      CHANNELS 3 Zrotation Xrotation Yrotation
      JOINT neck
      {
        OFFSET 0 22.1894 -2.19456
        CHANNELS 3 Zrotation Xrotation Yrotation
        JOINT head
        {
          OFFSET -0.24384 7.07133 1.2192
          CHANNELS 3 Zrotation Xrotation Yrotation
          JOINT leftEye
          {
            OFFSET 4.14528 8.04674 8.04672
            CHANNELS 3 Zrotation Xrotation Yrotation
            End Site
            {
              OFFSET 1 0 0
            }
          }
          JOINT rightEye
          {
            OFFSET -3.6576 8.04674 8.04672
            CHANNELS 3 Zrotation Xrotation Yrotation
            End Site
            {
              OFFSET 1 0 0
            }
          }
        }
      }
      JOINT rCollar
      {
        OFFSET -2.68224 19.2634 -4.8768
        CHANNELS 3 Zrotation Xrotation Yrotation
        JOINT rShldr
        {
          OFFSET -8.77824 -1.95073 1.46304
          CHANNELS 3 Zrotation Xrotation Yrotation
          JOINT rForeArm
          {
            OFFSET -28.1742 -1.7115 0.48768
            CHANNELS 3 Zrotation Xrotation Yrotation
            JOINT rHand
            {
              OFFSET -22.5879 0.773209 7.07136
              CHANNELS 3 Zrotation Xrotation Yrotation
              JOINT rThumb1
              {
                OFFSET -1.2192 -0.487915 3.41376
                CHANNELS 3 Zrotation Xrotation Yrotation
                JOINT rThumb2
                {
                  OFFSET -3.37035 -0.52449 3.41376
                  CHANNELS 3 Zrotation Xrotation Yrotation
                  End Site
                  {
                    OFFSET -1.78271 -1.18214 1.43049
                  }
                }
              }
              JOINT rIndex1
              {
                OFFSET -7.75947 0.938293 5.60832
                CHANNELS 3 Zrotation Xrotation Yrotation
                JOINT rIndex2
                {
                  OFFSET -2.54057 -0.884171 1.56538
                  CHANNELS 3 Zrotation Xrotation Yrotation
                  End Site
                  {
                    OFFSET -1.62519 -0.234802 1.16502
                  }
                }
              }
              JOINT rMid1
              {
                OFFSET -8.24714 1.18213 3.41376
                CHANNELS 3 Zrotation Xrotation Yrotation
                JOINT rMid2
                {
                  OFFSET -3.10165 -0.590103 1.0647
                  CHANNELS 3 Zrotation Xrotation Yrotation
                  End Site
                  {
                    OFFSET -2.48547 -0.328903 0.83742
                  }
                }
              }
              JOINT rRing1
              {
                OFFSET -8.82822 0.546677 1.51678
                CHANNELS 3 Zrotation Xrotation Yrotation
                JOINT rRing2
                {
                  OFFSET -2.60934 -0.819778 -0.0198488
                  CHANNELS 3 Zrotation Xrotation Yrotation
                  End Site
                  {
                    OFFSET -2.33842 -0.294052 0.168128
                  }
                }
              }
              JOINT rPinky1
              {
                OFFSET -8.27202 -0.0477905 -0.4584
                CHANNELS 3 Zrotation Xrotation Yrotation
                JOINT rPinky2
                {
                  OFFSET -1.82734 -0.647385 -0.700984
                  CHANNELS 3 Zrotation Xrotation Yrotation
                  End Site
                  {
                    OFFSET -1.69225 -0.51767 -0.607171
                  }
                }
              }
            }
          }
        }
      }
      JOINT lCollar
      {
        OFFSET 2.68224 19.2634 -4.8768
        CHANNELS 3 Zrotation Xrotation Yrotation
        JOINT lShldr
        {
          OFFSET 8.77824 -1.95073 1.46304
          CHANNELS 3 Zrotation Xrotation Yrotation
          JOINT lForeArm
          {
            OFFSET 28.1742 -1.7115 0.48768
            CHANNELS 3 Zrotation Xrotation Yrotation
            JOINT lHand
            {
              OFFSET 22.5879 0.773209 7.07136
              CHANNELS 3 Zrotation Xrotation Yrotation
              JOINT lThumb1
              {
                OFFSET 1.2192 -0.487915 3.41376
                CHANNELS 3 Zrotation Xrotation Yrotation
                JOINT lThumb2
                {
                  OFFSET 3.37035 -0.52449 3.41376
                  CHANNELS 3 Zrotation Xrotation Yrotation
                  End Site
                  {
                    OFFSET 1.78271 -1.18214 1.43049
                  }
                }
              }
              JOINT lIndex1
              {
                OFFSET 7.75947 0.938293 5.60832
                CHANNELS 3 Zrotation Xrotation Yrotation
                JOINT lIndex2
                {
                  OFFSET 2.54057 -0.884171 1.56538
                  CHANNELS 3 Zrotation Xrotation Yrotation
                  End Site
                  {
                    OFFSET 1.62519 -0.234802 1.16502
                  }
                }
              }
              JOINT lMid1
              {
                OFFSET 8.24714 1.18213 3.41376
                CHANNELS 3 Zrotation Xrotation Yrotation
                JOINT lMid2
                {
                  OFFSET 3.10165 -0.590103 1.0647
                  CHANNELS 3 Zrotation Xrotation Yrotation
                  End Site
                  {
                    OFFSET 2.48547 -0.328903 0.83742
                  }
                }
              }
              JOINT lRing1
              {
                OFFSET 8.82822 0.546677 1.51678
                CHANNELS 3 Zrotation Xrotation Yrotation
                JOINT lRing2
                {
                  OFFSET 2.60934 -0.819778 -0.0198488
                  CHANNELS 3 Zrotation Xrotation Yrotation
                  End Site
                  {
                    OFFSET 2.33842 -0.294052 0.168128
                  }
                }
              }
              JOINT lPinky1
              {
                OFFSET 8.27202 -0.0477905 -0.4584
                CHANNELS 3 Zrotation Xrotation Yrotation
                JOINT lPinky2
                {
                  OFFSET 1.82734 -0.647385 -0.700984
                  CHANNELS 3 Zrotation Xrotation Yrotation
                  End Site
                  {
                    OFFSET 1.69225 -0.51767 -0.607171
                  }
                }
              }
            }
          }
        }
      }
    }
  }
  JOINT rButtock
  {
    OFFSET -8.77824 4.35084 1.2192
    CHANNELS 3 Zrotation Xrotation Yrotation
    JOINT rThigh
    {
      OFFSET 0 -1.70687 -2.19456
      CHANNELS 3 Zrotation Xrotation Yrotation
      JOINT rShin
      {
        OFFSET 0 -36.8199 0.73152
        CHANNELS 3 Zrotation Xrotation Yrotation
        JOINT rFoot
        {
          OFFSET 0.73152 -45.1104 -5.12064
          CHANNELS 3 Zrotation Xrotation Yrotation
          End Site
          {
            OFFSET -1.1221 -3.69964 12.103
          }
        }
      }
    }
  }
  JOINT lButtock
  {
    OFFSET 8.77824 4.35084 1.2192
    CHANNELS 3 Zrotation Xrotation Yrotation
    JOINT lThigh
    {
      OFFSET 0 -1.70687 -2.19456
      CHANNELS 3 Zrotation Xrotation Yrotation
      JOINT lShin
      {
        OFFSET 0 -36.8199 0.73152
        CHANNELS 3 Zrotation Xrotation Yrotation
        JOINT lFoot
        {
          OFFSET -0.73152 -45.1104 -5.12064
          CHANNELS 3 Zrotation Xrotation Yrotation
          End Site
          {
            OFFSET 1.1221 -3.69964 12.103
          }
        }
      }
    }
  }
}
MOTION
Frames:	7
Frame Time:	0.03333
-17.9442 69.3637 2.4119 -114.632689 -72.96765 116.379448 1.69288 -0.43052 75.73557 -7.222123 -8.040244 -73.048069 11.31402 6.450526 79.635859 -6.249173 -3.583353 -99.940292 -0.003867 -0.0 0.000282 0.001776 -0.0 -0.000312 -150.119788 21.701127 155.219692 2.572524 16.173112 -30.031709 -0.407787 -85.005023 -97.945847 -115.394752 41.991793 108.164414 -167.109817 -4.784901 89.807792 -155.03029 0.481432 79.342589 -108.427805 34.163011 91.744446 -152.360776 10.189605 113.379696 7.904707 -24.807489 -3.01418 -159.327495 7.066782 141.674163 0.003967 0.876788 0.274799 -6.697278 62.749629 19.316376 0.550389 1.456242 0.505512 -127.345385 -31.018752 -125.731846 152.128781 14.11319 -157.556742 26.440519 -26.647396 20.621375 -78.653989 -83.028639 179.540143 11.20725 26.042941 -1.108407 -83.254146 -50.258408 -33.615565 21.116755 -18.321569 20.789804 151.353691 -17.157985 -121.133752 161.238303 -15.489627 -119.615903 169.08828 -33.247265 -145.37693 -18.156982 -42.053524 -0.308433 0.008664 -0.830768 0.262384 23.327998 72.956428 -36.424404 144.260354 9.237733 141.009555 148.311396 14.099675 142.247543 -179.999322 75.74979 -0.000699 161.697378 32.753924 73.476652 23.416186 23.435138 95.150729 -143.226556 29.275006 171.806555 -0.006195 -0.000147 -0.004646 18.177546 -19.644496 -135.675414 -37.406387 -34.341024 -160.163917 -18.969088 -73.612567 -102.621746
-16.9389 70.6158 1.7774 -111.00674 -70.046995 114.496944 7.498337 -0.619152 0.395703 3.916089 -10.446563 2.384037 -6.28847 14.455056 -106.641113 8.186701 23.052105 88.999094 0.002046 0.0 0.002351 0.001156 -0.0 -0.002913 4.239352 -44.74278 -8.64745 174.237264 -44.581915 124.838524 -176.374751 -75.195831 84.785438 -115.637678 41.973214 108.236121 -78.031387 38.68962 42.411969 24.58051 -26.745374 19.790004 -10.572514 15.012786 6.866228 -168.437787 -20.790444 109.709316 -160.098686 -4.901069 142.968914 -170.274538 -25.743111 143.887064 -0.020826 -1.726131 -0.541944 -156.099488 -16.858089 173.845159 -8.191003 -17.575741 -7.730067 -149.199913 19.217433 -145.312818 155.537531 -3.733215 -161.885324 64.591119 -59.96768 61.844899 10.61875 -66.41818 -92.602841 6.27708 12.040025 0.652893 103.19999 36.331091 -60.111017 37.045352 -8.22308 -36.608755 10.572632 15.013337 -6.86403 66.673607 48.451081 -49.915628 154.143835 11.634839 -139.428796 42.433125 58.288937 -36.59896 0.014678 -1.322865 0.417746 156.461855 -30.821645 -175.4655 -5.665681 16.871515 -5.089516 80.85998 -54.456698 80.126792 0.000369 5.1e-05 -0.000185 -24.054412 -32.041664 98.460856 22.580065 3.84604 -95.534426 -58.312777 24.190231 23.451405 -0.000174 0.001639 0.000224 22.251938 -20.401813 -130.431456 -41.411448 -39.698626 -65.012829 -101.866158 11.962121 -172.899812
-15.911800000000001 71.9916 1.4156 -108.803433 -66.983377 114.687622 11.365184 -3.405392 1.163043 4.042934 -9.989408 0.783785 -6.575381 7.502191 -68.646096 14.311268 15.418602 51.512969 -0.000485 0.0 -0.001976 -0.001034 -0.0 0.000178 -155.614195 -4.236373 161.991092 -124.727209 -47.809547 -145.099268 -166.148442 -23.358016 -115.322468 -47.460909 -76.877134 -49.65923 -5.433718 5.264999 1.077281 -149.116622 -57.142521 116.289541 -108.427859 34.161486 91.743217 -4.523057 18.005516 -2.32604 -169.089546 -33.247434 145.374753 -163.41289 -4.861009 142.995064 -71.9255 72.973844 89.771979 5.099535 27.974572 -0.697255 -1.203512 -3.047411 -1.116799 -145.800774 6.96439 -142.518763 -4.223728 -44.025511 8.501536 -108.356704 -76.365142 -58.630774 -90.755596 -33.659551 104.768709 147.549788 60.232597 -123.395198 -176.504945 -20.694784 -88.627838 12.592631 -51.510683 3.324078 10.570278 15.013547 -6.865808 -86.613078 -60.38396 -36.840149 -23.906889 -61.333269 -1.402278 -3.257598 -0.638125 -0.004145 145.098903 -1.521344 178.650652 -12.085278 52.749875 2.71962 -1.483786 4.003482 -1.359965 77.821447 -54.753951 77.382163 -179.993604 75.749292 -0.005262 145.319258 46.604335 43.599109 3.8888 27.550778 86.017417 34.189142 33.594444 -102.756769 -0.0 0.00035 0.000288 24.203972 -19.990409 52.745621 34.119594 23.801684 -1.454448 -93.181823 38.89803 -4.325486
-14.732400000000002 73.3699 1.076 -108.318733 -64.229024 116.858024 12.731056 -7.567053 59.763574 -4.061923 -9.615208 -59.65711 -5.780692 6.656148 -66.115379 13.909136 14.083385 51.102328 0.000362 -0.0 -0.001392 0.001981 0.0 0.001677 -155.445822 -3.134631 161.757374 23.175583 -2.727726 -16.942785 121.40656 -67.599179 21.498451 -103.43765 46.304175 92.066776 -178.927799 -16.453585 89.421722 37.912726 -70.304169 28.15856 88.792284 -75.498973 40.050461 89.477993 -65.555778 32.628063 2.099463 -6.30552 -1.081538 -172.095061 -31.341225 144.104606 -69.839873 -72.123011 -86.714401 -150.981589 0.127836 176.266273 -140.387292 -1.530179 -137.473452 18.283506 47.022897 6.256745 142.973538 39.431574 -147.389976 27.206989 3.330371 -0.305942 118.345173 -6.274932 26.875285 -24.460722 -55.871767 -12.715327 -81.971321 -50.09097 -32.723747 153.071268 -10.970502 -120.03295 -19.56798 -35.040472 5.98595 -5.704356 13.589913 -0.97974 57.86693 59.218585 -50.525264 -3.349192 0.218963 -0.143068 145.119894 0.310175 179.225572 141.835872 -56.543515 163.976526 1.179187 -2.985143 1.09215 73.771753 -54.96081 73.540033 179.958262 75.748441 0.034341 135.751164 50.455633 160.716069 37.85414 -10.963781 85.759014 -72.627827 39.449594 139.4609 0.000911 0.001198 -0.001171 27.188392 -21.833316 106.266214 34.76219 -4.583774 -98.545458 -103.98003 -18.454999 -1.597443
-13.3318 74.6116 1.0027 -109.798641 -61.426468 120.867428 19.921446 -10.613565 -77.97818 7.594347 0.37606 78.892966 12.624763 2.025355 62.223532 -2.315553 -1.258154 -74.19834 -0.000362 0.0 -0.001579 0.000817 0.0 0.003617 -3.767589 17.92107 4.640805 -10.570641 -16.704527 20.20955 -168.027689 -67.060255 -108.641688 -18.94491 -58.501712 -18.095051 -68.055185 37.900282 35.359603 -148.841093 -35.254031 85.825653 -145.338287 -6.264465 118.677903 178.478312 -46.889516 113.322456 -167.374638 -28.008508 145.269546 -163.850206 -6.231742 143.12459 0.000354 0.063699 0.020102 -156.370486 -20.59854 174.267525 -101.240544 -46.19376 -99.437488 42.1683 79.74393 -5.018454 -0.071101 -0.42784 0.094428 -16.299781 20.517312 -41.726875 -1.177533 23.81815 -106.495525 8.113323 16.848567 0.224931 94.791144 37.828071 -54.284044 8.4608 -15.276658 -28.021941 166.822516 -43.973611 -122.061579 157.167229 -12.477544 -119.152402 -23.903887 -61.333817 -1.399494 42.331511 58.458398 -36.20345 75.674334 -72.115374 92.829167 -13.94232 29.732023 0.631404 124.851548 -29.037756 122.620454 -9.506477 18.392181 -2.976919 -0.0 -0.001244 -0.001572 -27.790604 -7.765814 -180.0 2.354906 -43.57735 -13.869064 -30.713335 -18.854738 169.549571 -179.99949 75.74928 0.0 -140.721845 43.056979 72.287967 31.096183 -8.530542 -98.849077 26.257658 -13.293419 -10.963864
-11.843 75.7163 1.5230000000000001 -113.206653 -58.575692 126.733876 21.505434 -11.117151 -49.669595 7.920733 -3.692884 50.574337 -3.211468 12.497081 -106.669373 8.59484 18.869944 97.241525 -0.00259 -0.0 0.000927 0.003352 -0.0 -0.002497 -147.865542 28.559996 152.690221 -77.883405 -68.98583 -99.99409 8.664837 20.414584 -100.536601 -142.017572 32.428351 125.826837 -1.58318 1.556449 0.263949 -5.148415 6.100244 5.332831 -145.338505 -6.263842 118.678987 -170.705497 -31.429574 118.153842 -166.208946 -24.328126 145.094161 -163.083148 -3.974593 142.887462 -145.120133 1.97464 -179.748466 -155.680238 1.226865 -179.384809 -154.165379 45.106028 -148.906983 -11.972934 -26.0471 -13.59465 3.7682 17.920913 -4.641553 -15.889227 5.171631 -43.644319 -148.87748 8.187905 -35.847046 173.187804 23.459685 -141.926556 95.360962 37.750423 -54.68256 -175.241637 -42.089075 -75.480115 179.422253 -58.426291 -117.043765 -2.039324 22.744814 2.925197 -89.035647 -81.3925 -59.759353 174.642536 -37.134894 -143.365667 145.099107 -1.522085 178.649959 73.592335 -78.002298 95.238913 156.864929 55.541477 150.329278 -72.204647 84.459172 34.774673 -179.660148 75.750062 -0.261942 116.975111 56.647696 -113.032898 6.94976 -45.956905 95.195664 -8.635841 58.074544 61.898019 -0.005855 0.000647 -0.002927 34.353689 -21.548192 -73.997584 -28.702135 1.404682 89.680479 -97.610804 -16.116594 3.06957
-10.3546 76.5775 2.4545 -118.626201 -56.01204 134.666015 20.390792 -11.223671 5.006347 3.329768 -9.800355 -4.668107 16.501995 8.383225 108.900757 -8.494671 7.630836 -115.819702 0.000137 -0.0 -0.000963 -5e-05 -0.0 0.00167 -0.049036 0.292285 0.065991 -23.425547 10.805144 21.533166 64.236852 41.333002 -148.36588 -122.203236 50.344389 102.072285 -10.203577 9.66204 2.405223 82.374395 -75.520243 12.798483 -1.161854 1.860822 0.669438 -37.657151 42.932864 27.798571 -151.477115 17.841731 137.538581 -1.98 14.276315 2.922461 -5.5e-05 0.063735 0.020314 -148.220125 -76.78053 -171.087342 -25.518377 -38.07013 -24.580632 20.601235 58.219323 9.045889 155.808968 -5.55544 -162.266836 10.375145 2.648587 22.062703 -119.280685 -48.982262 124.016166 32.630622 56.772483 -16.074582 -178.850116 -18.544186 -89.07862 117.359113 18.506789 -55.440718 2.686061 4.226863 -1.583463 -4.160898 9.549243 -1.441373 154.142215 11.634575 -139.428858 128.886639 51.840625 -118.089556 0.02056 -1.725805 0.544075 156.035564 -15.222985 -173.655072 -5.665477 16.871537 -5.089643 158.93374 52.358896 149.844644 -0.004465 0.000859 -0.003349 -33.331341 2.875369 85.638164 58.290301 0.546141 45.201547 29.693437 -4.144462 -120.554093 -179.997247 75.748783 -0.002265 -138.15663 40.608347 126.012167 17.204511 -24.399494 149.113978 79.580947 47.566489 -2.799364
